<svg width="1440" height="253" viewBox="0 0 1440 253" fill="none" xmlns="http://www.w3.org/2000/svg">
<path d="M1440 251.921L948.429 1.00189M1440 129.47L1062.57 1.00293M720.465 252L720.15 1.0016M1440 6.96246L1405 1.00374M1440 178.453L1005.5 1.00076M1080.3 252L834.286 1.0016M900.386 252L777.219 1.0016M540.544 252L663.075 1.0016M1440 31.4672L1290.86 1.00414M1440 47.801L1233.79 1.0033M0.776213 252L491.865 1.0016M0.000799006 68.3414L263.578 1.00467M1260.23 252L891.362 1.0016M360.617 252L606.008 1.0016M1440 18.0986L1347.93 1M0.000799006 47.8951L206.502 1.00061M0.000799006 7.01479L35.2929 1.00258M0.000799006 18.1634L92.3597 1.00449M0.000799006 31.5449L149.435 1.00328M180.696 252L548.932 1.0016M0.000799006 178.761L434.789 1.00446M0.000799006 94.6277L320.647 1.00378M0.000799006 129.679L377.723 1.00313M1440 68.2224L1176.71 1.00284M1440 94.4707L1119.65 1.00279M1440 214.54L0 214.54M1440 1.00259L0 1.00259M1440 43.3314L0 43.3314M1440 52.0256L0 52.0256M1440 115.123L0 115.123M1440 133.907L0 133.907M1440 98.9709L0 98.9709M1440 21.9331L0 21.9331M1440 16.0264L0 16.0264M1440 72.6168L0 72.6168M1440 61.7229L0 61.7229M1440 28.399L0 28.399M1440 35.4969L0 35.4969M1440 10.6096L0 10.6096M1440 5.61603L0 5.61603M1440 156.018L0 156.018M1440 182.434L0 182.434M1440 84.9278L0 84.9278" stroke="url(#paint0_linear_5669_32618)" stroke-linecap="round" stroke-linejoin="round"/>
<defs>
<linearGradient id="paint0_linear_5669_32618" x1="720" y1="1" x2="720" y2="252" gradientUnits="userSpaceOnUse">
<stop stop-color="#F9F9F9"/>
<stop offset="0.553549" stop-color="#DADCE2"/>
<stop offset="0.96" stop-color="#F9F9F9"/>
</linearGradient>
</defs>
</svg>
